<svg version="1.2" xmlns="http://www.w3.org/2000/svg" viewBox="0 0 1080 1080" width="1080" height="1080">
	<title>New Project</title>
	<style>
		.s0 { fill: #51aacd } 
	</style>
	<path id="C1" class="s0" aria-label="C1"  d="m206.8 460.5v122.2q0 31.4 20.6 48.2 21.4 16.8 55 16.8 34.4 0 49.7-10.7 15.3-10.7 25.2-31.3 10.7-20.7 27.5-20.7h165q6.9 0 11.5 5.4 5.3 4.6 5.3 11.4 0 71.1-67.2 129.9-33.6 29-89.4 47.4-55.8 17.5-131.4 17.5-75.6 0-138.3-22.9-61.8-23.7-100.8-76.4-39-53.4-39-130.6v-90.1q0-77.2 39-130.7 73.3-99.3 245.2-99.3 69.5 0 125.3 18.3 55.8 17.6 89.4 46.6 67.2 58.9 67.2 129.9 0 6.9-5.3 12.2-4.6 4.6-11.5 4.6h-165q-16.8 0-27.5-20.6-9.9-20.6-25.2-31.3-15.3-10.7-49.7-10.7-33.6 0-55 16.8-20.6 16.8-20.6 48.1zm730.3-185.6v357.5h121.5q8.4 0 14.5 6.1 6.1 6.1 6.1 14.5v115.4q0 8.4-6.1 14.5-6.1 6.1-14.5 6.1h-461.4q-8.4 0-14.5-6.1-6.2-6.1-6.2-14.5v-115.4q0-8.4 6.2-14.5 6.1-6.1 14.5-6.1h141.3v-183.3l-77.2 51.1q-6.8 4.6-14.5 4.6-6.8 0-14.5-10.7l-61.9-96.2q-3-6.1-3-13.8 0-8.4 9.9-16l169.6-110.8q5.3-3.1 12.2-3.1h157.4q8.4 0 14.5 6.2 6.1 6.1 6.1 14.5z"/>
</svg>