<svg version="1.2" xmlns="http://www.w3.org/2000/svg" viewBox="0 0 1080 1080" width="1080" height="1080">
	<title>New Project</title>
	<style>
		.s0 { fill: #f990b3 } 
	</style>
	<path id="C2" class="s0" aria-label="C2"  d="m209.1 459.8v123.6q0 31.7 20.9 48.7 21.6 17 55.6 17 34.8 0 50.2-10.8 15.5-10.8 25.5-31.7 10.8-20.9 27.8-20.9h166.9q6.9 0 11.6 5.4 5.4 4.7 5.4 11.6 0 71.9-68 131.4-34 29.3-90.4 47.9-56.4 17.7-132.9 17.7-76.4 0-139.8-23.2-62.6-23.9-102-77.2-39.4-54.1-39.4-132.1v-91.2q0-78 39.4-132.1 74.2-100.4 248-100.4 70.3 0 126.7 18.6 56.4 17.7 90.4 47.1 68 59.5 68 131.3 0 7-5.4 12.4-4.7 4.6-11.6 4.6h-166.9q-17 0-27.8-20.9-10-20.8-25.5-31.6-15.4-10.8-50.2-10.8-34 0-55.6 17-20.9 16.9-20.9 48.6zm646.6 173.8h203.2q8.5 0 14.7 6.2 6.1 6.2 6.1 14.7v116.6q0 8.5-6.1 14.7-6.2 6.2-14.7 6.2h-465.8q-8.5 0-14.7-6.2-6.2-6.2-6.2-14.7v-95q0-29.3 20.1-41.7 131.3-82.7 196.2-132.1 65.7-49.4 65.7-76.5 0-9.2-1.6-14.6-0.7-6.2-7.7-10.9-6.9-5.4-20.9-5.4-13.1 0-22.4 6.2-9.2 6.2-12.3 12.4-3.1 6.1-6.2 17.7-3.1 10.9-3.9 12.4-3 8.5-21.6 8.5h-156.8q-7.7 0-13.9-5.4-5.4-5.4-5.4-13.9 0-86.5 67.2-137.5 68-51.8 181.5-51.8 113.6 0 171.5 44.8 58 44.8 58 127.5 0 41.7-27.1 75.7-14.7 18.5-28.6 33.2-13.1 13.9-38.6 33.2-61 45.6-109.7 75.7z"/>
</svg>