<svg version="1.2" xmlns="http://www.w3.org/2000/svg" viewBox="0 0 1080 1080" width="1080" height="1080">
	<title>New Project</title>
	<style>
		.s0 { fill: #a55ee4 } 
	</style>
	<path id="C3" class="s0" aria-label="C3"  d="m206.8 460.5v122.2q0 31.3 20.7 48.1 21.4 16.9 55 16.9 34.3 0 49.6-10.7 15.3-10.7 25.2-31.4 10.7-20.6 27.5-20.6h165.1q6.9 0 11.4 5.4 5.4 4.5 5.4 11.4 0 71.1-67.3 129.9-33.6 29-89.3 47.4-55.8 17.5-131.5 17.5-75.6 0-138.2-22.9-61.9-23.7-100.9-76.4-39-53.5-39-130.6v-90.2q0-77.2 39-130.6 73.4-99.4 245.3-99.4 69.5 0 125.3 18.4 55.7 17.6 89.3 46.6 67.3 58.8 67.3 129.9 0 6.8-5.4 12.2-4.5 4.6-11.4 4.6h-165.1q-16.8 0-27.5-20.7-9.9-20.6-25.2-31.3-15.3-10.7-49.6-10.7-33.6 0-55 16.8-20.7 16.8-20.7 48.2zm872.5 161.2q0 78.7-74.8 126.8-74.1 48.1-190.3 48.1-156.6 0-226.9-76.4-36.7-40.5-36.7-82.5 0-7.6 4.6-12.2 5.4-4.6 12.2-4.6h167.4q8.4 0 16.8 8.4 8.4 7.7 12.2 10.7 12.2 8.4 45.8 8.4 34.4 0 48.9-11.4 14.6-11.5 14.6-29.1 0-33.6-58.9-33.6h-101.6q-8.4 0-14.5-6.1-6.1-6.1-6.1-14.5v-61.9q0-22.2 16-30.6l112.3-58h-213.9q-8.4 0-14.5-6.1-6.1-6.2-6.1-14.6v-107.7q0-8.4 6.1-14.5 6.1-6.1 14.5-6.1h417.2q8.4 0 14.5 6.1 6.1 6.1 6.1 14.5v97q0 17.6-16 30.6l-94.8 61.1q145.9 34.4 145.9 158.2z"/>
</svg>