<svg version="1.2" xmlns="http://www.w3.org/2000/svg" viewBox="0 0 1080 1080" width="1080" height="1080">
	<title>c3</title>
	<style>
		.s0 { fill: #184395 } 
	</style>
	<path id="C4" class="s0" aria-label="C4"  d="m211 458.8v123.2q0 31.6 21.1 48.6 21.8 16.9 56.2 16.9 35.1 0 50.8-10.8 15.6-10.8 25.7-31.6 10.9-20.8 28.1-20.8h168.7q7 0 11.7 5.4 5.5 4.6 5.5 11.6 0 71.6-68.8 130.9-34.3 29.3-91.3 47.8-57 17.7-134.3 17.7-77.3 0-141.3-23.1-63.3-23.9-103.1-77-39.8-54-39.8-131.8v-90.8q0-77.8 39.8-131.8 75-100.1 250.6-100.1 71.1 0 128.1 18.5 57 17.7 91.3 47 68.8 59.3 68.8 130.9 0 7-5.5 12.3-4.7 4.7-11.7 4.7h-168.7q-17.2 0-28.1-20.8-10.1-20.8-25.7-31.6-15.7-10.8-50.8-10.8-34.4 0-56.2 17-21.1 16.9-21.1 48.5zm787.8-187.2v275.8h67.9q9.4 0 15.7 6.1 6.2 6.2 6.2 14.7v114.7q0 8.5-6.2 14.7-6.3 6.1-14.9 6.1h-68.7v65.5q0 8.5-6.2 14.6-6.3 6.2-14.9 6.2h-156.9q-8.6 0-14.8-6.2-6.3-6.1-6.3-14.6v-65.5h-253q-8.5 0-14.8-6.1-6.2-6.2-6.2-14.7v-114q0-13.1 8.5-23.8l236.6-281.2q11-13.1 28.9-13.1h178q8.6 0 14.9 6.2 6.2 6.1 6.2 14.6zm-283.4 284.2h89.8v-108.6z"/>
</svg>