<svg version="1.2" xmlns="http://www.w3.org/2000/svg" viewBox="0 0 1080 1080" width="1080" height="1080">
	<title>New Project</title>
	<style>
		.s0 { fill: #f7d000 } 
	</style>
	<path id="path1" fill-rule="evenodd" class="s0" d="m67 202.5c0-111.8 90.7-202.5 202.5-202.5h202.5v402.3c0 28.2 32.7 44 54.8 26.3l113.9-91.1 114 91.1c22.1 17.7 54.8 1.9 54.8-26.3v-402.3h135c37.3 0 67.5 30.2 67.5 67.5v675c0 37.3-30.2 67.5-67.5 67.5v135c37.3 0 67.5 30.2 67.5 67.5 0 37.3-30.2 67.5-67.5 67.5h-675c-111.8 0-202.5-90.7-202.5-202.5zm135 675c0 37.3 30.2 67.5 67.5 67.5h540v-135h-540c-37.3 0-67.5 30.2-67.5 67.5z"/>
</svg>