<svg class="svg-icon" style="width: 1em; height: 1em; vertical-align: middle; fill: var(--text, #f4f4ef); overflow: hidden;" viewBox="0 0 1024 1024" version="1.1" xmlns="http://www.w3.org/2000/svg">
  <path d="M664.9 953.5c-56.2 0-107.8-6.3-153.6-18.8-62.9-17.1-114.9-46-154.8-85.9C316.7 809 288.6 759.2 273 701c-12.3-46-16.8-97.4-13.5-152.7 5.7-93.5 31.8-165.3 33-168.3 1.2-3.2 3.3-6 6.1-7.9 3.2-2.2 78.9-54.7 182.1-81.4 61.2-15.9 119.4-19.3 172.9-10.2 67.4 11.5 127.2 43 177.7 93.5 50.1 50.1 83.9 107.1 100.2 169.2 13.1 49.7 15.1 102.7 6 157.4-13.4 80.2-46.4 139.8-56.2 156.1v55.4c0 7.6-5.1 14.2-12.4 16.2-3.5 0.9-85.9 23.1-190.2 25-4.5 0.2-9.2 0.2-13.8 0.2zM322.3 396.7c-5.8 17.6-24.8 79.4-29.3 154.6-3.1 51.5 1.2 99.1 12.6 141.5 14.1 52.3 39.2 96.8 74.7 132.3 35.6 35.6 82.7 61.6 139.9 77.2 46.5 12.7 99.7 18.6 158.1 17.5 77.3-1.4 143.2-14.7 169.6-20.8v-47c0-3.2 0.9-6.4 2.7-9.1 0.4-0.6 40-62.9 54.1-148.9 8.2-49.9 6.2-97.9-5.7-142.9-14.9-56.1-45.6-107.7-91.3-153.4-45.5-45.5-99.2-73.8-159.6-84.1-48.8-8.3-102.2-5.1-158.8 9.6-84 21.7-149.8 62.3-167 73.5z m542.3 515.5z" />
  <path d="M759.4 523c-6.6 0-12.9-4-15.6-10.5-0.2-0.6-14.6-34.7-52.1-61.4-21.8-15.6-47.3-25.7-75.8-30-36.2-5.6-77.5-1.9-122.7 11-8.9 2.5-18.2-2.6-20.8-11.5-2.5-8.9 2.6-18.2 11.5-20.8 50.4-14.4 96.9-18.3 138.4-11.7 33.8 5.4 64.2 17.8 90.4 36.8 44.8 32.5 61.4 73.3 62.1 75 3.4 8.6-0.7 18.4-9.4 21.8-1.9 0.9-4 1.3-6 1.3zM282.1 357.5c-2.6 0-5.1-0.6-7.5-1.8-16.1-8-30.7-18.4-43.2-31-31.1-31.1-48.3-72.6-48.3-116.6s17.2-85.5 48.3-116.6c6.3-6.3 13.3-12.2 21.6-18 5-3.6 11.6-4.1 17.2-1.3 16.1 8 30.7 18.4 43.2 31 31.1 31.1 48.3 72.6 48.3 116.6s-17.2 85.5-48.3 116.6c-6.3 6.3-13.3 12.2-21.6 18-2.9 2.1-6.3 3.1-9.7 3.1z m-17.9-250.3c-3.3 2.7-6.3 5.3-9 8.1-24.8 24.8-38.5 57.8-38.5 92.9 0 35.1 13.7 68.1 38.5 92.9 7.6 7.6 16.1 14.2 25.4 19.7 3.3-2.7 6.3-5.3 9-8.1 24.8-24.8 38.5-57.8 38.5-92.9 0-35.1-13.7-68.1-38.5-92.9a135.9 135.9 0 0 0-25.4-19.7zM171.7 445.1c-28.7 0-55.8-11.2-76.1-31.5-4.1-4.1-8-8.7-11.7-14.1-3.6-5-4.1-11.6-1.3-17.2 5.2-10.5 12-20 20.2-28.2 41.9-41.9 110.2-41.9 152.2 0 4.1 4.1 8 8.7 11.7 14.1 3.6 5 4.1 11.6 1.3 17.2-5.2 10.5-12 20-20.2 28.2-20.3 20.3-47.3 31.4-76.1 31.5z m-53.8-56.8l1.5 1.5c14 14 32.6 21.7 52.3 21.7 19.8 0 38.4-7.7 52.3-21.7 3.2-3.2 6.1-6.7 8.6-10.4l-1.5-1.5c-28.9-28.9-75.8-28.9-104.7 0-3 3.1-5.9 6.6-8.5 10.4z" />
</svg>
