<svg version="1.2" xmlns="http://www.w3.org/2000/svg" viewBox="0 0 1080 1080" width="1080" height="1080">
	<title>New Project</title>
	<style>
		.s0 { fill: #ffffff } 
	</style>
	<path id="Shape 1" fill-rule="evenodd" class="s0" d="m169.3 135c0-74.5 60.5-135 135-135h472.4c74.5 0 135 60.5 135 135v809.9c0 74.5-60.5 135-135 135h-472.4c-74.5 0-135-60.5-135-135zm438.7 810c0-17.9-7.1-35.1-19.8-47.8-12.6-12.6-29.8-19.7-47.7-19.7-17.9 0-35.1 7.1-47.7 19.7-12.7 12.7-19.8 29.9-19.8 47.8 0 17.9 7.1 35 19.8 47.7 12.6 12.6 29.8 19.7 47.7 19.7 17.9 0 35.1-7.1 47.7-19.7 12.7-12.7 19.8-29.8 19.8-47.7zm-303.7-810v675h472.4v-675z"/>
</svg>