<svg version="1.2" xmlns="http://www.w3.org/2000/svg" viewBox="0 0 1080 1080" width="1080" height="1080">
	<title>New Project</title>
	<style>
		.s0 { fill: #ffffff } 
	</style>
	<path id="Shape 2" fill-rule="evenodd" class="s0" d="m647.6 162c59.6 0 108.1 48.5 108.1 108.1v378.3c0 59.7-48.5 108.1-108.1 108.1h-198.3l18.1 54.1h126.1c29.9 0 54.1 24.2 54.1 54.1 0 29.8-24.2 54-54.1 54h-432.4c-29.8 0-54-24.2-54-54 0-29.9 24.2-54.1 54-54.1h126.1l18-54.1h-198.1c-59.6 0-108.1-48.4-108.1-108.1v-378.3c0-59.6 48.5-108.1 108.1-108.1zm-540.5 108.1v378.3h540.5v-378.3zm891.8-108.1c44.8 0 81.1 36.3 81.1 81.1v594.5c0 44.8-36.3 81.1-81.1 81.1h-108.1c-44.7 0-81-36.3-81-81.1v-594.5c0-44.8 36.3-81.1 81-81.1zm-108.1 135.1c0 14.9 12.2 27.1 27.1 27.1h54c14.9 0 27-12.2 27-27.1 0-14.8-12.1-27-27-27h-54c-14.9 0-27.1 12.2-27.1 27zm27.1 135.2h54c14.9 0 27-12.2 27-27.1 0-14.8-12.1-27-27-27h-54c-14.9 0-27.1 12.2-27.1 27 0 14.9 12.2 27.1 27.1 27.1zm-11.2 259c-10.2 10.1-15.9 23.9-15.9 38.2 0 14.4 5.7 28.1 15.9 38.2 10.1 10.2 23.8 15.9 38.2 15.9 14.3 0 28.1-5.7 38.2-15.9 10.1-10.1 15.8-23.8 15.8-38.2 0-14.3-5.7-28.1-15.8-38.2-10.1-10.1-23.9-15.8-38.2-15.8-14.4 0-28.1 5.7-38.2 15.8z"/>
</svg>