<svg version="1.2" xmlns="http://www.w3.org/2000/svg" viewBox="0 0 1080 1080" width="1080" height="1080">
	<title>phone</title>
	<style>
		.s0 { fill: #f4f4ef } 
		.s1 { fill: #0b0b08 } 
	</style>
	<g id="Folder 1">
		<path id="Layer 2" class="s0" d="m38.8 696v-315c0-55.2 44.8-100 100-100h803.4c55.2 0 100 44.8 100 100v315c0 55.2-44.8 100-100 100h-803.4c-55.2 0-100-44.8-100-100z"/>
		<path id="Layer 2 copy" class="s1" d="m86 678.7v-280.4c0-41.4 33.6-75 75-75h759c41.4 0 75 33.6 75 75v280.4c0 41.4-33.6 75-75 75h-759c-41.4 0-75-33.6-75-75z"/>
		<path id="Layer 3" class="s0" d="m123 538.5c0 20.7-16.8 37.5-37.5 37.5-20.7 0-37.5-16.8-37.5-37.5 0-20.7 16.8-37.5 37.5-37.5 20.7 0 37.5 16.8 37.5 37.5z"/>
	</g>
</svg>