<svg version="1.2" xmlns="http://www.w3.org/2000/svg" viewBox="0 0 1080 1080" width="1080" height="1080">
	<title>New Project</title>
	<style>
		.s0 { fill: #9ACD32 } 
	</style>
	<path id="path1" fill-rule="evenodd" class="s0" d="m303.8 67.5h33.7c18.6 0 33.7 15.2 33.7 33.8 0 18.5-15.1 33.7-33.7 33.7h-33.8v67.5h109.3c23.4 0 42.6 19 42.6 42.6 0 5.3-0.8 10.6-2.7 15.4l-68.6 178.3 3.8-0.1c28.1 0 50.6 22.6 50.6 50.7 0 28-22.5 50.6-50.6 50.6h-8.4l33.7 270h-286.8l33.7-270h-8.4c-28.1 0-50.7-22.6-50.7-50.6 0-28.1 22.6-50.7 50.7-50.7h3.8l-68.6-178.2c-1.7-5.1-2.7-10.1-2.7-15.4 0-23.4 19.2-42.6 42.6-42.6h109.2v-67.5h-33.7c-18.6 0-33.8-15.2-33.8-33.8 0-18.5 15.2-33.7 33.8-33.7h33.7v-33.7c0-18.6 15.2-33.8 33.8-33.8 18.6 0 33.7 15.2 33.7 33.8zm135 810l91.2 121.4c6.5 8.9 10.1 19.5 10.1 30.4 0 28.1-22.6 50.7-50.6 50.7h-438.8c-28 0-50.6-22.6-50.6-50.7 0-10.9 3.6-21.5 10.1-30.4l91.1-121.5zm540 0.1l91.2 121.4c6.5 8.9 10.1 19.5 10.1 30.4 0 28.1-22.6 50.6-50.6 50.6h-371.3c-28 0-50.6-22.5-50.6-50.6 0-10.9 3.6-21.5 10.1-30.4l91.2-121.5zm-303.8-472.4l33.8-0.1c18.5 0 33.7 15.2 33.7 33.8v33.7h50.6v-33.7c0-18.6 15.2-33.8 33.8-33.8h33.7c18.6 0 33.8 15.2 33.8 33.8v33.7h50.6v-33.7c0-18.6 15.2-33.8 33.8-33.8h33.7c18.6 0 33.8 15.2 33.8 33.8v108.6c0 17.1-6.6 33.4-18 45.8l-59.7 65 7 151.8h-264.7l4.6-151.8-57.4-65.4c-10.9-12.3-16.8-28.1-16.8-44.5v-109.5c0-18.6 15.1-33.8 33.7-33.8zm135 303.8h67.5v-67.5c0-18.6-15.2-33.8-33.7-33.8-18.6 0-33.8 15.2-33.8 33.8z"/>
</svg>